# xmcd
#
# Track frame offsets:
#	150
#	16392
#	29772
#	43369
#	58451
#	69995
#	84023
#	100886
#	114374
#	127593
#	143620
#	157378
#	170299
#	187270
#	200975
#	211440
#	223876
#	238202
#	253122
#	268122
#	286768
#	302875
#	317227
#
# Disc length: 4391 seconds
#
# Revision: 0
# Processed by: cddbd v1.5.2PL0 Copyright (c) Steve Scherf et al.
# Submitted via: audiograbber 1.83.01
#
DISCID=6b112517
DTITLE=chelino sanchez - 24 kilates de oro
DYEAR=2008
DGENRE=corridos
TTITLE0=nieves de enero
TTITLE1=carta de luto
TTITLE2=los chismes
TTITLE3=corazoncito tirano
TTITLE4=hermosisimo lucero
TTITLE5=las uvas
TTITLE6=por una rencilla vieja
TTITLE7=florita del alma
TTITLE8=ALMA ENAMORADO
TTITLE9=FLOR DE MARGARITA
TTITLE10=UNA TARDE EL NAVEGANTE
TTITLE11=EL PITALLON
TTITLE12=CUATRO ESPADAS
TTITLE13=BAJO MIL LLAVES
TTITLE14=QUE ME ENTIERREN CANTANDO
TTITLE15=MARIO PERALTA
TTITLE16=PESCADORES DE ENSENADA
TTITLE17=PRENDA DEL ALMA
TTITLE18=MARIA DE LA LUZ
TTITLE19=NOCTURNO A ROSARIO
TTITLE20=QUISIERA SER PAJARILLO
TTITLE21=EL CUERVO
TTITLE22=MIGUEL MARTINEZ
EXTD=
EXTT0=
EXTT1=
EXTT2=
EXTT3=
EXTT4=
EXTT5=
EXTT6=
EXTT7=
EXTT8=
EXTT9=
EXTT10=
EXTT11=
EXTT12=
EXTT13=
EXTT14=
EXTT15=
EXTT16=
EXTT17=
EXTT18=
EXTT19=
EXTT20=
EXTT21=
EXTT22=
PLAYORDER=
